<svg width="1200" height="800" viewBox="0 0 1200 800" fill="none" xmlns="http://www.w3.org/2000/svg" role="img" aria-label="Cloud illustration">
  <defs>
    <linearGradient id="g1" x1="0" x2="1">
      <stop offset="0%" stop-color="#0066CC"/>
      <stop offset="100%" stop-color="#00d2ff"/>
    </linearGradient>
  </defs>
  <rect width="1200" height="800" rx="24" fill="url(#g1)" opacity="0.06"/>
  <g transform="translate(150,140)">
    <ellipse cx="420" cy="220" rx="300" ry="140" fill="#fff" opacity="0.08"/>
    <g transform="translate(80,40)">
      <path d="M200 120c0-40 32-72 72-72 28 0 52 16 64 40 18-10 42-14 64-6 34 12 52 48 42 82-6 22-26 38-48 44H100c-28 0-52-22-52-50 0-24 18-44 40-48 16-3 34-8 66-44z" fill="#fff" opacity="0.95"/>
      <circle cx="420" cy="80" r="10" fill="#fff" opacity="0.6"/>
      <circle cx="480" cy="140" r="6" fill="#fff" opacity="0.6"/>
    </g>
    <rect x="520" y="60" width="230" height="160" rx="16" fill="#ffffff" opacity="0.06"/>
    <rect x="560" y="96" width="150" height="8" rx="4" fill="#fff" opacity="0.5"/>
    <rect x="560" y="116" width="100" height="8" rx="4" fill="#fff" opacity="0.4"/>
    <rect x="560" y="136" width="120" height="8" rx="4" fill="#fff" opacity="0.35"/>
  </g>
</svg>